<svg width="960" height="640" viewBox="0 0 960 640" fill="none" xmlns="http://www.w3.org/2000/svg">
  <defs>
    <linearGradient id="bg" x1="120" y1="80" x2="840" y2="560" gradientUnits="userSpaceOnUse">
      <stop stop-color="#F7F2EA"/>
      <stop offset="1" stop-color="#E7D8C6"/>
    </linearGradient>
    <linearGradient id="panel" x1="180" y1="160" x2="760" y2="500" gradientUnits="userSpaceOnUse">
      <stop stop-color="#FFFFFF" stop-opacity="0.92"/>
      <stop offset="1" stop-color="#FFF7EE" stop-opacity="0.82"/>
    </linearGradient>
  </defs>
  <rect width="960" height="640" rx="40" fill="url(#bg)"/>
  <rect x="72" y="72" width="816" height="496" rx="34" fill="url(#panel)" stroke="#D8C4AE" stroke-opacity="0.8"/>
  <rect x="116" y="118" width="132" height="42" rx="21" fill="#A67C52" fill-opacity="0.18"/>
  <text x="146" y="145" fill="#8E6945" font-size="20" font-family="Arial, sans-serif" font-weight="700">日常保洁</text>
  <text x="116" y="214" fill="#2E3135" font-size="58" font-family="Arial, sans-serif" font-weight="700">轻盈洁净，天天安心</text>
  <text x="118" y="266" fill="#6E747B" font-size="24" font-family="Arial, sans-serif">家庭除尘、台面整理、厨房卫浴基础保洁</text>
  <rect x="118" y="458" width="168" height="56" rx="28" fill="#8E6945"/>
  <text x="156" y="493" fill="#FFFFFF" font-size="24" font-family="Arial, sans-serif" font-weight="700">上门 2 小时起</text>
  <g opacity="0.92">
    <rect x="604" y="178" width="160" height="232" rx="34" fill="#C9A47D"/>
    <rect x="626" y="142" width="118" height="56" rx="22" fill="#E8D4BF"/>
    <rect x="648" y="208" width="72" height="136" rx="22" fill="#F7EBDD"/>
    <rect x="674" y="344" width="20" height="102" rx="10" fill="#C08A57"/>
    <path d="M555 236C573 202 606 186 650 184V244C610 247 584 260 564 288L555 236Z" fill="#FFFFFF"/>
    <circle cx="558" cy="206" r="12" fill="#FFFFFF"/>
    <path d="M744 178C770 230 790 290 796 352" stroke="#E9D7C4" stroke-width="16" stroke-linecap="round"/>
    <path d="M558 128L570 152" stroke="#FFFFFF" stroke-width="8" stroke-linecap="round"/>
    <path d="M544 142L584 138" stroke="#FFFFFF" stroke-width="8" stroke-linecap="round"/>
    <path d="M786 152L798 176" stroke="#FFFFFF" stroke-width="8" stroke-linecap="round"/>
    <path d="M772 166L812 162" stroke="#FFFFFF" stroke-width="8" stroke-linecap="round"/>
  </g>
</svg>
