<svg width="960" height="640" viewBox="0 0 960 640" fill="none" xmlns="http://www.w3.org/2000/svg">
  <defs>
    <linearGradient id="bg" x1="120" y1="80" x2="840" y2="560" gradientUnits="userSpaceOnUse">
      <stop stop-color="#EEF4F8"/>
      <stop offset="1" stop-color="#CFE0EA"/>
    </linearGradient>
    <linearGradient id="card" x1="132" y1="110" x2="818" y2="534" gradientUnits="userSpaceOnUse">
      <stop stop-color="#FFFFFF" stop-opacity="0.92"/>
      <stop offset="1" stop-color="#F5FAFD" stop-opacity="0.82"/>
    </linearGradient>
  </defs>
  <rect width="960" height="640" rx="40" fill="url(#bg)"/>
  <rect x="72" y="72" width="816" height="496" rx="34" fill="url(#card)" stroke="#C8D8E2"/>
  <rect x="116" y="118" width="148" height="42" rx="21" fill="#5F87A6" fill-opacity="0.14"/>
  <text x="146" y="145" fill="#4B718E" font-size="20" font-family="Arial, sans-serif" font-weight="700">深度清洁</text>
  <text x="116" y="214" fill="#27303A" font-size="58" font-family="Arial, sans-serif" font-weight="700">顽固污渍，也能处理妥帖</text>
  <text x="118" y="266" fill="#697480" font-size="24" font-family="Arial, sans-serif">适合厨房重油污、浴室水垢、搬家开荒与退租保洁</text>
  <rect x="118" y="458" width="182" height="56" rx="28" fill="#4B718E"/>
  <text x="154" y="493" fill="#FFFFFF" font-size="24" font-family="Arial, sans-serif" font-weight="700">半天专项清洁</text>
  <g opacity="0.95">
    <rect x="610" y="176" width="170" height="250" rx="34" fill="#9EC0D4"/>
    <rect x="642" y="146" width="104" height="52" rx="22" fill="#D8EAF4"/>
    <path d="M566 392L656 218C666 198 691 192 709 206L744 232C762 246 764 272 750 292L660 466L566 392Z" fill="#F9FCFE"/>
    <path d="M744 232L782 270" stroke="#6D97B6" stroke-width="20" stroke-linecap="round"/>
    <path d="M566 392L628 444" stroke="#7099B7" stroke-width="28" stroke-linecap="round"/>
    <path d="M638 440L694 504" stroke="#7099B7" stroke-width="16" stroke-linecap="round"/>
    <circle cx="564" cy="214" r="20" fill="#FFFFFF"/>
    <path d="M564 174V254" stroke="#FFFFFF" stroke-width="8" stroke-linecap="round"/>
    <path d="M524 214H604" stroke="#FFFFFF" stroke-width="8" stroke-linecap="round"/>
    <circle cx="806" cy="174" r="14" fill="#FFFFFF"/>
    <path d="M806 146V202" stroke="#FFFFFF" stroke-width="6" stroke-linecap="round"/>
    <path d="M778 174H834" stroke="#FFFFFF" stroke-width="6" stroke-linecap="round"/>
  </g>
</svg>
